<svg xmlns="http://www.w3.org/2000/svg" width="900" height="900" viewBox="0 0 900 900">
  <defs>
    <linearGradient id="bg" x1="0" y1="0" x2="1" y2="1">
      <stop offset="0" stop-color="#5B21B6"/>
      <stop offset="1" stop-color="#D8B4FE"/>
    </linearGradient>
    <radialGradient id="glow" cx="50%" cy="38%" r="55%">
      <stop offset="0" stop-color="#A855F7" stop-opacity="0.28"/>
      <stop offset="0.55" stop-color="#A855F7" stop-opacity="0.10"/>
      <stop offset="1" stop-color="#A855F7" stop-opacity="0"/>
    </radialGradient>
    <filter id="soft" x="-20%" y="-20%" width="140%" height="140%">
      <feDropShadow dx="0" dy="24" stdDeviation="18" flood-color="#111827" flood-opacity="0.18"/>
    </filter>
  </defs>

  <rect width="100%" height="100%" rx="60" fill="url(#bg)"/>
  <rect width="100%" height="100%" rx="60" fill="url(#glow)"/>

  <g filter="url(#soft)">
    <rect x="70" y="90" width="760" height="610" rx="48" fill="rgba(255,255,255,0.18)" stroke="rgba(255,255,255,0.22)"/>
    <path d="M450 560c-120 0-190 75-190 150 0 70 55 110 190 110s190-40 190-110c0-75-70-150-190-150zm-170-260c0-55 45-100 100-100s100 45 100 100-45 100-100 100-100-45-100-100zm240 0c0-55 45-100 100-100s100 45 100 100-45 100-100 100-100-45-100-100-100-100zm-320 140c0-50 40-90 90-90s90 40 90 90-40 90-90 90-90-40-90-90zm460 0c0-50 40-90 90-90s90 40 90 90-40 90-90 90-90-40-90-90z" fill="rgba(255,255,255,0.92)"/>
  </g>

  <text x="50%" y="770" text-anchor="middle" font-family="Inter,system-ui,Segoe UI,Roboto,Arial" font-size="58" font-weight="800" fill="rgba(255,255,255,0.96)">Nina</text>
  <text x="50%" y="835" text-anchor="middle" font-family="Inter,system-ui,Segoe UI,Roboto,Arial" font-size="28" font-weight="600" fill="rgba(255,255,255,0.78)">Cachorro • imagem placeholder</text>
</svg>